# MagicaVoxel @ Ephtracy

# group
g OBJ_Ojos

# material
mtllib OBJ_Ojos.mtl
usemtl palette

# normals
vn -1 0 0
vn 1 0 0
vn 0 -1 0
vn 0 1 0
vn 0 0 -1
vn 0 0 1

# texcoords
vt 0.0449219 0.5
vt 0.841797 0.5
vt 0.958984 0.5
vt 0.994141 0.5

# verts
v 1 0 13
v 1 1 13
v 1 0 16
v 1 1 16
v 1 0 17
v 1 1 17
v 1 0 18
v 1 1 18
v 2 0 12
v 2 1 12
v 2 0 13
v 2 1 13
v 2 0 16
v 2 1 16
v 2 0 17
v 2 1 17
v 2 0 18
v 2 1 18
v 2 0 19
v 2 1 19
v 3 0 19
v 3 1 19
v 3 0 20
v 3 1 20
v 5 0 11
v 5 1 11
v 5 0 12
v 5 1 12
v 6 0 10
v 6 1 10
v 6 0 11
v 6 1 11
v 8 0 11
v 8 1 11
v 8 0 12
v 8 1 12
v 9 0 13
v 9 1 13
v 9 0 16
v 9 1 16
v 10 0 12
v 10 1 12
v 10 0 13
v 10 1 13
v 10 0 16
v 10 1 16
v 10 0 17
v 10 1 17
v 10 0 19
v 10 1 19
v 10 0 20
v 10 1 20
v 11 0 18
v 11 1 18
v 11 0 19
v 11 1 19
v 12 0 17
v 12 1 17
v 12 0 18
v 12 1 18
v 2 0 17
v 2 1 17
v 2 0 18
v 2 1 18
v 3 0 18
v 3 1 18
v 3 0 19
v 3 1 19
v 4 0 12
v 4 1 12
v 4 0 13
v 4 1 13
v 4 0 16
v 4 1 16
v 4 0 17
v 4 1 17
v 4 0 19
v 4 1 19
v 4 0 20
v 4 1 20
v 5 0 13
v 5 1 13
v 5 0 16
v 5 1 16
v 6 0 11
v 6 1 11
v 6 0 12
v 6 1 12
v 8 0 10
v 8 1 10
v 8 0 11
v 8 1 11
v 9 0 11
v 9 1 11
v 9 0 12
v 9 1 12
v 11 0 19
v 11 1 19
v 11 0 20
v 11 1 20
v 12 0 12
v 12 1 12
v 12 0 13
v 12 1 13
v 12 0 16
v 12 1 16
v 12 0 17
v 12 1 17
v 12 0 18
v 12 1 18
v 12 0 19
v 12 1 19
v 13 0 13
v 13 1 13
v 13 0 16
v 13 1 16
v 13 0 17
v 13 1 17
v 13 0 18
v 13 1 18
v 1 0 13
v 1 0 16
v 1 0 17
v 1 0 18
v 2 0 12
v 2 0 13
v 2 0 16
v 2 0 17
v 2 0 18
v 2 0 19
v 3 0 13
v 3 0 15
v 3 0 18
v 3 0 19
v 3 0 20
v 4 0 12
v 4 0 13
v 4 0 15
v 4 0 16
v 4 0 17
v 4 0 19
v 4 0 20
v 5 0 11
v 5 0 12
v 5 0 13
v 5 0 16
v 6 0 10
v 6 0 11
v 6 0 12
v 8 0 10
v 8 0 11
v 8 0 12
v 9 0 11
v 9 0 12
v 9 0 13
v 9 0 16
v 10 0 12
v 10 0 13
v 10 0 15
v 10 0 16
v 10 0 17
v 10 0 19
v 10 0 20
v 11 0 13
v 11 0 15
v 11 0 18
v 11 0 19
v 11 0 20
v 12 0 12
v 12 0 13
v 12 0 16
v 12 0 17
v 12 0 18
v 12 0 19
v 13 0 13
v 13 0 16
v 13 0 17
v 13 0 18
v 1 1 13
v 1 1 16
v 1 1 17
v 1 1 18
v 2 1 12
v 2 1 13
v 2 1 16
v 2 1 17
v 2 1 18
v 2 1 19
v 3 1 13
v 3 1 15
v 3 1 18
v 3 1 19
v 3 1 20
v 4 1 12
v 4 1 13
v 4 1 15
v 4 1 16
v 4 1 17
v 4 1 19
v 4 1 20
v 5 1 11
v 5 1 12
v 5 1 13
v 5 1 16
v 6 1 10
v 6 1 11
v 6 1 12
v 8 1 10
v 8 1 11
v 8 1 12
v 9 1 11
v 9 1 12
v 9 1 13
v 9 1 16
v 10 1 12
v 10 1 13
v 10 1 15
v 10 1 16
v 10 1 17
v 10 1 19
v 10 1 20
v 11 1 13
v 11 1 15
v 11 1 18
v 11 1 19
v 11 1 20
v 12 1 12
v 12 1 13
v 12 1 16
v 12 1 17
v 12 1 18
v 12 1 19
v 13 1 13
v 13 1 16
v 13 1 17
v 13 1 18
v 6 0 10
v 8 0 10
v 6 1 10
v 8 1 10
v 5 0 11
v 6 0 11
v 8 0 11
v 9 0 11
v 5 1 11
v 6 1 11
v 8 1 11
v 9 1 11
v 2 0 12
v 4 0 12
v 10 0 12
v 12 0 12
v 2 1 12
v 4 1 12
v 10 1 12
v 12 1 12
v 1 0 13
v 2 0 13
v 4 0 13
v 5 0 13
v 9 0 13
v 10 0 13
v 12 0 13
v 13 0 13
v 1 1 13
v 2 1 13
v 4 1 13
v 5 1 13
v 9 1 13
v 10 1 13
v 12 1 13
v 13 1 13
v 1 0 17
v 2 0 17
v 12 0 17
v 13 0 17
v 1 1 17
v 2 1 17
v 12 1 17
v 13 1 17
v 2 0 18
v 3 0 18
v 11 0 18
v 12 0 18
v 2 1 18
v 3 1 18
v 11 1 18
v 12 1 18
v 3 0 19
v 4 0 19
v 10 0 19
v 11 0 19
v 3 1 19
v 4 1 19
v 10 1 19
v 11 1 19
v 6 0 11
v 8 0 11
v 6 1 11
v 8 1 11
v 5 0 12
v 6 0 12
v 8 0 12
v 9 0 12
v 5 1 12
v 6 1 12
v 8 1 12
v 9 1 12
v 1 0 16
v 2 0 16
v 4 0 16
v 5 0 16
v 9 0 16
v 10 0 16
v 12 0 16
v 13 0 16
v 1 1 16
v 2 1 16
v 4 1 16
v 5 1 16
v 9 1 16
v 10 1 16
v 12 1 16
v 13 1 16
v 2 0 17
v 4 0 17
v 10 0 17
v 12 0 17
v 2 1 17
v 4 1 17
v 10 1 17
v 12 1 17
v 1 0 18
v 2 0 18
v 12 0 18
v 13 0 18
v 1 1 18
v 2 1 18
v 12 1 18
v 13 1 18
v 2 0 19
v 3 0 19
v 11 0 19
v 12 0 19
v 2 1 19
v 3 1 19
v 11 1 19
v 12 1 19
v 3 0 20
v 4 0 20
v 10 0 20
v 11 0 20
v 3 1 20
v 4 1 20
v 10 1 20
v 11 1 20

# faces
f 3/3/1 2/3/1 1/3/1
f 4/3/1 2/3/1 3/3/1
f 7/1/1 6/1/1 5/1/1
f 8/1/1 6/1/1 7/1/1
f 11/3/1 10/3/1 9/3/1
f 12/3/1 10/3/1 11/3/1
f 15/3/1 14/3/1 13/3/1
f 16/3/1 14/3/1 15/3/1
f 19/1/1 18/1/1 17/1/1
f 20/1/1 18/1/1 19/1/1
f 23/1/1 22/1/1 21/1/1
f 24/1/1 22/1/1 23/1/1
f 27/2/1 26/2/1 25/2/1
f 28/2/1 26/2/1 27/2/1
f 31/2/1 30/2/1 29/2/1
f 32/2/1 30/2/1 31/2/1
f 35/2/1 34/2/1 33/2/1
f 36/2/1 34/2/1 35/2/1
f 39/3/1 38/3/1 37/3/1
f 40/3/1 38/3/1 39/3/1
f 43/3/1 42/3/1 41/3/1
f 44/3/1 42/3/1 43/3/1
f 47/3/1 46/3/1 45/3/1
f 48/3/1 46/3/1 47/3/1
f 51/1/1 50/1/1 49/1/1
f 52/1/1 50/1/1 51/1/1
f 55/1/1 54/1/1 53/1/1
f 56/1/1 54/1/1 55/1/1
f 59/1/1 58/1/1 57/1/1
f 60/1/1 58/1/1 59/1/1
f 61/1/2 62/1/2 63/1/2
f 63/1/2 62/1/2 64/1/2
f 65/1/2 66/1/2 67/1/2
f 67/1/2 66/1/2 68/1/2
f 69/3/2 70/3/2 71/3/2
f 71/3/2 70/3/2 72/3/2
f 73/3/2 74/3/2 75/3/2
f 75/3/2 74/3/2 76/3/2
f 77/1/2 78/1/2 79/1/2
f 79/1/2 78/1/2 80/1/2
f 81/3/2 82/3/2 83/3/2
f 83/3/2 82/3/2 84/3/2
f 85/2/2 86/2/2 87/2/2
f 87/2/2 86/2/2 88/2/2
f 89/2/2 90/2/2 91/2/2
f 91/2/2 90/2/2 92/2/2
f 93/2/2 94/2/2 95/2/2
f 95/2/2 94/2/2 96/2/2
f 97/1/2 98/1/2 99/1/2
f 99/1/2 98/1/2 100/1/2
f 101/3/2 102/3/2 103/3/2
f 103/3/2 102/3/2 104/3/2
f 105/3/2 106/3/2 107/3/2
f 107/3/2 106/3/2 108/3/2
f 109/1/2 110/1/2 111/1/2
f 111/1/2 110/1/2 112/1/2
f 113/3/2 114/3/2 115/3/2
f 115/3/2 114/3/2 116/3/2
f 117/1/2 118/1/2 119/1/2
f 119/1/2 118/1/2 120/1/2
f 126/3/3 122/3/3 121/3/3
f 127/3/3 122/3/3 126/3/3
f 128/1/3 124/1/3 123/1/3
f 129/1/3 124/1/3 128/1/3
f 131/3/3 127/3/3 126/3/3
f 131/3/3 126/3/3 125/3/3
f 131/3/3 128/3/3 127/3/3
f 132/3/3 128/3/3 131/3/3
f 133/1/3 130/1/3 129/1/3
f 134/1/3 130/1/3 133/1/3
f 136/3/3 131/3/3 125/3/3
f 137/4/3 132/4/3 131/4/3
f 137/3/3 131/3/3 136/3/3
f 138/3/3 128/3/3 132/3/3
f 138/4/3 132/4/3 137/4/3
f 139/3/3 128/3/3 138/3/3
f 140/3/3 128/3/3 139/3/3
f 141/1/3 135/1/3 134/1/3
f 142/1/3 135/1/3 141/1/3
f 145/3/3 138/3/3 137/3/3
f 145/3/3 139/3/3 138/3/3
f 146/3/3 139/3/3 145/3/3
f 148/2/3 144/2/3 143/2/3
f 149/2/3 144/2/3 148/2/3
f 150/2/3 148/2/3 147/2/3
f 151/2/3 148/2/3 150/2/3
f 153/2/3 152/2/3 151/2/3
f 154/2/3 152/2/3 153/2/3
f 158/3/3 156/3/3 155/3/3
f 159/3/3 156/3/3 158/3/3
f 160/3/3 156/3/3 159/3/3
f 164/3/3 158/3/3 157/3/3
f 164/4/3 159/4/3 158/4/3
f 165/3/3 160/3/3 159/3/3
f 165/4/3 159/4/3 164/4/3
f 165/3/3 161/3/3 160/3/3
f 167/1/3 163/1/3 162/1/3
f 168/1/3 163/1/3 167/1/3
f 169/3/3 164/3/3 157/3/3
f 169/3/3 165/3/3 164/3/3
f 170/3/3 165/3/3 169/3/3
f 171/3/3 161/3/3 165/3/3
f 171/3/3 165/3/3 170/3/3
f 172/3/3 161/3/3 171/3/3
f 173/1/3 167/1/3 166/1/3
f 174/1/3 167/1/3 173/1/3
f 175/3/3 171/3/3 170/3/3
f 176/3/3 171/3/3 175/3/3
f 177/1/3 173/1/3 172/1/3
f 178/1/3 173/1/3 177/1/3
f 179/3/4 180/3/4 184/3/4
f 184/3/4 180/3/4 185/3/4
f 181/1/4 182/1/4 186/1/4
f 186/1/4 182/1/4 187/1/4
f 184/3/4 185/3/4 189/3/4
f 183/3/4 184/3/4 189/3/4
f 185/3/4 186/3/4 189/3/4
f 189/3/4 186/3/4 190/3/4
f 187/1/4 188/1/4 191/1/4
f 191/1/4 188/1/4 192/1/4
f 183/3/4 189/3/4 194/3/4
f 189/4/4 190/4/4 195/4/4
f 194/3/4 189/3/4 195/3/4
f 190/3/4 186/3/4 196/3/4
f 195/4/4 190/4/4 196/4/4
f 196/3/4 186/3/4 197/3/4
f 197/3/4 186/3/4 198/3/4
f 192/1/4 193/1/4 199/1/4
f 199/1/4 193/1/4 200/1/4
f 195/3/4 196/3/4 203/3/4
f 196/3/4 197/3/4 203/3/4
f 203/3/4 197/3/4 204/3/4
f 201/2/4 202/2/4 206/2/4
f 206/2/4 202/2/4 207/2/4
f 205/2/4 206/2/4 208/2/4
f 208/2/4 206/2/4 209/2/4
f 209/2/4 210/2/4 211/2/4
f 211/2/4 210/2/4 212/2/4
f 213/3/4 214/3/4 216/3/4
f 216/3/4 214/3/4 217/3/4
f 217/3/4 214/3/4 218/3/4
f 215/3/4 216/3/4 222/3/4
f 216/4/4 217/4/4 222/4/4
f 217/3/4 218/3/4 223/3/4
f 222/4/4 217/4/4 223/4/4
f 218/3/4 219/3/4 223/3/4
f 220/1/4 221/1/4 225/1/4
f 225/1/4 221/1/4 226/1/4
f 215/3/4 222/3/4 227/3/4
f 222/3/4 223/3/4 227/3/4
f 227/3/4 223/3/4 228/3/4
f 223/3/4 219/3/4 229/3/4
f 228/3/4 223/3/4 229/3/4
f 229/3/4 219/3/4 230/3/4
f 224/1/4 225/1/4 231/1/4
f 231/1/4 225/1/4 232/1/4
f 228/3/4 229/3/4 233/3/4
f 233/3/4 229/3/4 234/3/4
f 230/1/4 231/1/4 235/1/4
f 235/1/4 231/1/4 236/1/4
f 239/2/5 238/2/5 237/2/5
f 240/2/5 238/2/5 239/2/5
f 245/2/5 242/2/5 241/2/5
f 246/2/5 242/2/5 245/2/5
f 247/2/5 244/2/5 243/2/5
f 248/2/5 244/2/5 247/2/5
f 253/3/5 250/3/5 249/3/5
f 254/3/5 250/3/5 253/3/5
f 255/3/5 252/3/5 251/3/5
f 256/3/5 252/3/5 255/3/5
f 265/3/5 258/3/5 257/3/5
f 266/3/5 258/3/5 265/3/5
f 267/3/5 260/3/5 259/3/5
f 268/3/5 260/3/5 267/3/5
f 269/3/5 262/3/5 261/3/5
f 270/3/5 262/3/5 269/3/5
f 271/3/5 264/3/5 263/3/5
f 272/3/5 264/3/5 271/3/5
f 277/1/5 274/1/5 273/1/5
f 278/1/5 274/1/5 277/1/5
f 279/1/5 276/1/5 275/1/5
f 280/1/5 276/1/5 279/1/5
f 285/1/5 282/1/5 281/1/5
f 286/1/5 282/1/5 285/1/5
f 287/1/5 284/1/5 283/1/5
f 288/1/5 284/1/5 287/1/5
f 293/1/5 290/1/5 289/1/5
f 294/1/5 290/1/5 293/1/5
f 295/1/5 292/1/5 291/1/5
f 296/1/5 292/1/5 295/1/5
f 297/2/6 298/2/6 299/2/6
f 299/2/6 298/2/6 300/2/6
f 301/2/6 302/2/6 305/2/6
f 305/2/6 302/2/6 306/2/6
f 303/2/6 304/2/6 307/2/6
f 307/2/6 304/2/6 308/2/6
f 309/3/6 310/3/6 317/3/6
f 317/3/6 310/3/6 318/3/6
f 311/3/6 312/3/6 319/3/6
f 319/3/6 312/3/6 320/3/6
f 313/3/6 314/3/6 321/3/6
f 321/3/6 314/3/6 322/3/6
f 315/3/6 316/3/6 323/3/6
f 323/3/6 316/3/6 324/3/6
f 325/3/6 326/3/6 329/3/6
f 329/3/6 326/3/6 330/3/6
f 327/3/6 328/3/6 331/3/6
f 331/3/6 328/3/6 332/3/6
f 333/1/6 334/1/6 337/1/6
f 337/1/6 334/1/6 338/1/6
f 335/1/6 336/1/6 339/1/6
f 339/1/6 336/1/6 340/1/6
f 341/1/6 342/1/6 345/1/6
f 345/1/6 342/1/6 346/1/6
f 343/1/6 344/1/6 347/1/6
f 347/1/6 344/1/6 348/1/6
f 349/1/6 350/1/6 353/1/6
f 353/1/6 350/1/6 354/1/6
f 351/1/6 352/1/6 355/1/6
f 355/1/6 352/1/6 356/1/6
