# Blender v2.79 (sub 0) OBJ File: ''
# www.blender.org
mtllib Brazo.mtl
o OBJ_Brazo
v -2.012694 -8.798367 2.024815
v -2.012694 -1.798366 -1.975184
v -2.012694 -8.798367 -1.975185
v -2.012694 -1.798367 2.024816
v -2.012694 1.201634 -1.975183
v -2.012694 1.201633 2.024817
v 1.987306 -8.798367 -1.975185
v 1.987306 -1.798366 -1.975184
v 1.987306 -8.798367 2.024815
v 1.987306 1.201634 -1.975183
v 1.987306 -1.798367 2.024816
v 1.987306 1.201633 2.024817
v 1.987306 -8.798367 -1.975185
v -2.012694 -8.798367 2.024815
v -2.012694 -8.798367 -1.975185
v 1.987306 -8.798367 2.024815
v -2.012694 1.201634 -1.975183
v -2.012694 1.201633 2.024817
v 1.987306 1.201634 -1.975183
v 1.987306 1.201633 2.024817
v -2.012694 -1.798366 -1.975184
v 1.987306 -8.798367 -1.975185
v -2.012694 -8.798367 -1.975185
v 1.987306 -1.798366 -1.975184
v -2.012694 1.201634 -1.975183
v 1.987306 1.201634 -1.975183
v -2.012694 -8.798367 2.024815
v 1.987306 -8.798367 2.024815
v -2.012694 -1.798367 2.024816
v 1.987306 -1.798367 2.024816
v -2.012694 1.201633 2.024817
v 1.987306 1.201633 2.024817
vt 0.029297 0.500000
vt 0.029297 0.500000
vt 0.029297 0.500000
vt 0.833984 0.500000
vt 0.833984 0.500000
vt 0.833984 0.500000
vt 0.029297 0.500000
vt 0.833984 0.500000
vt 0.029297 0.500000
vt 0.029297 0.500000
vt 0.029297 0.500000
vt 0.833984 0.500000
vt 0.833984 0.500000
vt 0.833984 0.500000
vt 0.029297 0.500000
vt 0.833984 0.500000
vt 0.029297 0.500000
vt 0.029297 0.500000
vt 0.029297 0.500000
vt 0.029297 0.500000
vt 0.833984 0.500000
vt 0.833984 0.500000
vt 0.833984 0.500000
vt 0.833984 0.500000
vt 0.029297 0.500000
vt 0.029297 0.500000
vt 0.029297 0.500000
vt 0.029297 0.500000
vt 0.833984 0.500000
vt 0.833984 0.500000
vt 0.833984 0.500000
vt 0.833984 0.500000
vt 0.029297 0.500000
vt 0.029297 0.500000
vt 0.029297 0.500000
vt 0.029297 0.500000
vt 0.833984 0.500000
vt 0.833984 0.500000
vt 0.833984 0.500000
vt 0.833984 0.500000
vn -1.0000 0.0000 0.0000
vn 1.0000 0.0000 0.0000
vn 0.0000 -1.0000 0.0000
vn 0.0000 1.0000 0.0000
vn 0.0000 0.0000 -1.0000
vn 0.0000 -0.0000 1.0000
usemtl palette
s 1
f 1/1/1 2/2/1 3/3/1
f 4/4/1 5/5/1 2/6/1
f 4/7/1 2/2/1 1/1/1
f 6/8/1 5/5/1 4/4/1
f 7/9/2 8/10/2 9/11/2
f 8/12/2 10/13/2 11/14/2
f 9/11/2 8/10/2 11/15/2
f 11/14/2 10/13/2 12/16/2
f 13/17/3 14/18/3 15/19/3
f 16/20/3 14/18/3 13/17/3
f 17/21/4 18/22/4 19/23/4
f 19/23/4 18/22/4 20/24/4
f 21/25/5 22/26/5 23/27/5
f 24/28/5 22/26/5 21/25/5
f 25/29/5 24/30/5 21/31/5
f 26/32/5 24/30/5 25/29/5
f 27/33/6 28/34/6 29/35/6
f 29/35/6 28/34/6 30/36/6
f 29/37/6 30/38/6 31/39/6
f 31/39/6 30/38/6 32/40/6
