# Blender v2.79 (sub 0) OBJ File: ''
# www.blender.org
mtllib Cuerpo.mtl
o OBJ_Cuerpo.001
v -1.322608 -3.230785 4.948355
v -2.322608 -6.230785 4.948355
v 1.677392 -6.230786 4.948355
v -2.322608 -3.230785 4.948355
v -1.322608 -1.230785 4.948355
v -2.322608 -1.230785 4.948355
v 1.677392 -0.230785 4.948355
v 0.677392 -0.230785 4.948355
v 1.677393 1.769215 4.948355
v 0.677393 1.769215 4.948355
v -1.322607 3.769215 4.948355
v -2.322607 3.769215 4.948355
v -1.322607 4.769214 4.948355
v -2.322607 4.769214 4.948355
v 1.677393 6.769213 4.948355
v -2.322606 6.769214 4.948355
v 1.677391 -6.230786 -5.051644
v -2.322609 -6.230785 -5.051644
v 1.677391 -4.230786 -5.051645
v 0.677392 -4.230785 -5.051645
v 1.677392 -2.230786 -5.051645
v 0.677392 -2.230785 -5.051645
v 1.677392 1.769215 -5.051645
v -1.322608 1.769215 -5.051645
v 1.677392 2.769214 -5.051645
v -0.322608 2.769214 -5.051645
v -0.322608 3.769214 -5.051645
v -1.322608 3.769215 -5.051645
v 1.677393 6.769213 -5.051644
v -2.322607 6.769214 -5.051644
v 1.677392 -1.230785 3.948355
v 1.677392 -0.230785 4.948355
v 1.677392 -6.230786 4.948355
v 1.677392 -0.230786 3.948355
v 1.677393 1.769215 4.948355
v 1.677392 0.769214 3.948355
v 1.677393 1.769215 3.948355
v 1.677393 6.769213 4.948355
v 1.677393 4.769214 3.948355
v 1.677393 5.769214 3.948355
v 1.677392 -2.230785 2.948355
v 1.677392 -1.230785 2.948355
v 1.677392 0.769214 2.948355
v 1.677393 3.769214 2.948355
v 1.677393 4.769214 2.948355
v 1.677393 5.769214 2.948355
v 1.677392 -1.230785 1.948355
v 1.677392 -0.230785 1.948355
v 1.677392 0.769214 1.948355
v 1.677392 -2.230786 0.948355
v 1.677392 -1.230785 0.948355
v 1.677393 3.769214 0.948355
v 1.677393 4.769213 0.948355
v 1.677392 -0.230785 -1.051645
v 1.677392 0.769214 -1.051645
v 1.677392 2.769214 -1.051645
v 1.677393 3.769214 -1.051645
v 1.677391 -5.230785 -2.051645
v 1.677392 -4.230785 -2.051645
v 1.677392 -1.230785 -2.051645
v 1.677392 -0.230786 -2.051645
v 1.677392 1.769215 -2.051645
v 1.677392 2.769214 -2.051645
v 1.677392 -4.230785 -3.051645
v 1.677392 -3.230785 -3.051645
v 1.677392 -0.230785 -3.051645
v 1.677392 0.769214 -3.051645
v 1.677392 1.769214 -3.051645
v 1.677392 2.769214 -3.051645
v 1.677393 3.769214 -3.051645
v 1.677393 4.769214 -3.051645
v 1.677391 -5.230785 -4.051645
v 1.677392 -4.230785 -4.051645
v 1.677392 -3.230786 -4.051645
v 1.677392 -2.230786 -4.051645
v 1.677392 -1.230785 -4.051645
v 1.677392 -0.230785 -4.051645
v 1.677391 -6.230786 -5.051644
v 1.677391 -4.230786 -5.051645
v 1.677392 -2.230786 -5.051645
v 1.677392 1.769215 -5.051645
v 1.677392 2.769214 -5.051645
v 1.677393 6.769213 -5.051644
v -2.322608 -3.230785 4.948355
v -2.322608 -1.230785 4.948355
v -2.322608 -2.230785 3.948355
v -2.322607 3.769215 4.948355
v -2.322608 -1.230785 3.948355
v -2.322608 -6.230785 4.948355
v -2.322608 -5.230784 1.948356
v -2.322608 -4.230784 1.948355
v -2.322608 -3.230785 1.948355
v -2.322608 -2.230785 1.948355
v -2.322607 3.769215 1.948355
v -2.322607 4.769214 4.948355
v -2.322606 6.769214 4.948355
v -2.322607 4.769215 1.948355
v -2.322608 -4.230785 0.948355
v -2.322608 -3.230785 0.948355
v -2.322608 -5.230785 -0.051645
v -2.322608 -4.230785 -0.051645
v -2.322608 -3.230785 -0.051645
v -2.322608 -2.230785 -0.051645
v -2.322608 1.769215 -0.051645
v -2.322607 3.769215 -0.051645
v -2.322608 -4.230785 -1.051645
v -2.322608 -3.230785 -1.051645
v -2.322608 1.769215 -1.051645
v -2.322607 2.769215 -1.051645
v -2.322607 2.769215 -2.051645
v -2.322607 3.769215 -2.051645
v -2.322607 4.769215 -2.051645
v -2.322608 -3.230785 -4.051645
v -2.322608 -2.230785 -4.051645
v -2.322607 3.769215 -4.051645
v -2.322607 4.769215 -4.051645
v -2.322609 -6.230785 -5.051644
v -2.322607 6.769214 -5.051644
v 0.677391 -6.230785 3.948355
v 1.677391 -6.230786 -5.051644
v 1.677392 -6.230786 4.948355
v 0.677391 -6.230785 -4.051645
v -1.322608 -6.230785 3.948355
v -1.322609 -6.230785 -4.051645
v -2.322608 -6.230785 4.948355
v -2.322609 -6.230785 -5.051644
v 1.677393 6.769213 4.948355
v 1.677393 6.769213 -5.051644
v -2.322606 6.769214 4.948355
v -2.322607 6.769214 -5.051644
vt 0.775391 0.500000
vt 0.775391 0.500000
vt 0.775391 0.500000
vt 0.775391 0.500000
vt 0.775391 0.500000
vt 0.830078 0.500000
vt 0.830078 0.500000
vt 0.830078 0.500000
vt 0.830078 0.500000
vt 0.775391 0.500000
vt 0.775391 0.500000
vt 0.775391 0.500000
vt 0.830078 0.500000
vt 0.830078 0.500000
vt 0.830078 0.500000
vt 0.775391 0.500000
vt 0.830078 0.500000
vt 0.775391 0.500000
vt 0.775391 0.500000
vt 0.775391 0.500000
vt 0.775391 0.500000
vt 0.830078 0.500000
vt 0.830078 0.500000
vt 0.830078 0.500000
vt 0.830078 0.500000
vt 0.775391 0.500000
vt 0.775391 0.500000
vt 0.775391 0.500000
vt 0.775391 0.500000
vt 0.775391 0.500000
vt 0.775391 0.500000
vt 0.775391 0.500000
vt 0.830078 0.500000
vt 0.830078 0.500000
vt 0.830078 0.500000
vt 0.775391 0.500000
vt 0.830078 0.500000
vt 0.775391 0.500000
vt 0.775391 0.500000
vt 0.775391 0.500000
vt 0.830078 0.500000
vt 0.830078 0.500000
vt 0.830078 0.500000
vt 0.830078 0.500000
vt 0.775391 0.500000
vt 0.775391 0.500000
vt 0.775391 0.500000
vt 0.830078 0.500000
vt 0.775391 0.500000
vt 0.830078 0.500000
vt 0.775391 0.500000
vt 0.775391 0.500000
vt 0.775391 0.500000
vt 0.775391 0.500000
vt 0.775391 0.500000
vt 0.830078 0.500000
vt 0.830078 0.500000
vt 0.830078 0.500000
vt 0.775391 0.500000
vt 0.830078 0.500000
vt 0.775391 0.500000
vt 0.775391 0.500000
vt 0.775391 0.500000
vt 0.830078 0.500000
vt 0.775391 0.500000
vt 0.775391 0.500000
vt 0.775391 0.500000
vt 0.830078 0.500000
vt 0.775391 0.500000
vt 0.830078 0.500000
vt 0.775391 0.500000
vt 0.775391 0.500000
vt 0.830078 0.500000
vt 0.775391 0.500000
vt 0.830078 0.500000
vt 0.830078 0.500000
vt 0.830078 0.500000
vt 0.775391 0.500000
vt 0.775391 0.500000
vt 0.830078 0.500000
vt 0.830078 0.500000
vt 0.830078 0.500000
vt 0.830078 0.500000
vt 0.927734 0.500000
vt 0.927734 0.500000
vt 0.927734 0.500000
vt 0.830078 0.500000
vt 0.775391 0.500000
vt 0.830078 0.500000
vt 0.775391 0.500000
vt 0.775391 0.500000
vt 0.775391 0.500000
vt 0.830078 0.500000
vt 0.927734 0.500000
vt 0.830078 0.500000
vt 0.830078 0.500000
vt 0.927734 0.500000
vt 0.775391 0.500000
vt 0.830078 0.500000
vt 0.775391 0.500000
vt 0.927734 0.500000
vt 0.927734 0.500000
vt 0.927734 0.500000
vt 0.927734 0.500000
vt 0.927734 0.500000
vt 0.775391 0.500000
vt 0.775391 0.500000
vt 0.775391 0.500000
vt 0.830078 0.500000
vt 0.830078 0.500000
vt 0.830078 0.500000
vt 0.775391 0.500000
vt 0.927734 0.500000
vt 0.830078 0.500000
vt 0.830078 0.500000
vt 0.830078 0.500000
vt 0.927734 0.500000
vt 0.775391 0.500000
vt 0.830078 0.500000
vt 0.830078 0.500000
vt 0.830078 0.500000
vt 0.775391 0.500000
vt 0.830078 0.500000
vt 0.830078 0.500000
vt 0.927734 0.500000
vt 0.830078 0.500000
vt 0.830078 0.500000
vt 0.830078 0.500000
vt 0.927734 0.500000
vt 0.830078 0.500000
vt 0.927734 0.500000
vt 0.830078 0.500000
vt 0.775391 0.500000
vt 0.927734 0.500000
vt 0.775391 0.500000
vt 0.830078 0.500000
vt 0.830078 0.500000
vt 0.830078 0.500000
vt 0.775391 0.500000
vt 0.830078 0.500000
vt 0.775391 0.500000
vt 0.830078 0.500000
vt 0.775391 0.500000
vt 0.775391 0.500000
vt 0.775391 0.500000
vt 0.775391 0.500000
vt 0.830078 0.500000
vt 0.775391 0.500000
vt 0.775391 0.500000
vt 0.775391 0.500000
vt 0.830078 0.500000
vt 0.830078 0.500000
vt 0.775391 0.500000
vt 0.775391 0.500000
vt 0.830078 0.500000
vt 0.830078 0.500000
vt 0.775391 0.500000
vt 0.775391 0.500000
vt 0.775391 0.500000
vt 0.775391 0.500000
vt 0.830078 0.500000
vt 0.775391 0.500000
vt 0.830078 0.500000
vt 0.830078 0.500000
vt 0.830078 0.500000
vt 0.775391 0.500000
vt 0.775391 0.500000
vt 0.775391 0.500000
vt 0.830078 0.500000
vt 0.775391 0.500000
vt 0.775391 0.500000
vt 0.775391 0.500000
vt 0.775391 0.500000
vt 0.830078 0.500000
vt 0.775391 0.500000
vt 0.775391 0.500000
vt 0.775391 0.500000
vt 0.830078 0.500000
vt 0.775391 0.500000
vt 0.830078 0.500000
vt 0.830078 0.500000
vt 0.830078 0.500000
vt 0.775391 0.500000
vt 0.775391 0.500000
vt 0.775391 0.500000
vt 0.830078 0.500000
vt 0.775391 0.500000
vt 0.830078 0.500000
vt 0.830078 0.500000
vt 0.830078 0.500000
vt 0.775391 0.500000
vt 0.775391 0.500000
vt 0.830078 0.500000
vt 0.830078 0.500000
vt 0.830078 0.500000
vt 0.775391 0.500000
vt 0.830078 0.500000
vt 0.775391 0.500000
vt 0.775391 0.500000
vt 0.775391 0.500000
vt 0.775391 0.500000
vt 0.775391 0.500000
vt 0.830078 0.500000
vt 0.830078 0.500000
vt 0.830078 0.500000
vt 0.830078 0.500000
vt 0.830078 0.500000
vt 0.830078 0.500000
vt 0.775391 0.500000
vt 0.830078 0.500000
vt 0.775391 0.500000
vt 0.775391 0.500000
vt 0.830078 0.500000
vt 0.775391 0.500000
vt 0.830078 0.500000
vt 0.775391 0.500000
vt 0.830078 0.500000
vt 0.775391 0.500000
vt 0.775391 0.500000
vt 0.775391 0.500000
vt 0.830078 0.500000
vt 0.830078 0.500000
vt 0.830078 0.500000
vt 0.775391 0.500000
vt 0.775391 0.500000
vt 0.830078 0.500000
vt 0.775391 0.500000
vt 0.775391 0.500000
vt 0.775391 0.500000
vt 0.775391 0.500000
vt 0.775391 0.500000
vt 0.775391 0.500000
vt 0.775391 0.500000
vt 0.306641 0.500000
vt 0.306641 0.500000
vt 0.306641 0.500000
vt 0.775391 0.500000
vt 0.306641 0.500000
vt 0.775391 0.500000
vt 0.775391 0.500000
vt 0.775391 0.500000
vt 0.775391 0.500000
vt 0.775391 0.500000
vt 0.775391 0.500000
vn 0.0000 0.0000 1.0000
vn 0.0000 -0.0000 -1.0000
vn 1.0000 -0.0000 -0.0000
vn -1.0000 0.0000 0.0000
vn -0.0000 -1.0000 0.0000
vn 0.0000 1.0000 0.0000
usemtl palette
s 1
f 1/1/1 2/2/1 3/3/1
f 4/4/1 2/2/1 1/1/1
f 5/5/1 1/1/1 3/3/1
f 5/6/1 4/7/1 1/8/1
f 6/9/1 4/7/1 5/6/1
f 7/10/1 5/5/1 3/3/1
f 7/10/1 6/11/1 5/5/1
f 8/12/1 6/11/1 7/10/1
f 9/13/1 8/14/1 7/15/1
f 10/16/1 6/11/1 8/12/1
f 10/17/1 8/14/1 9/13/1
f 11/18/1 10/16/1 9/19/1
f 11/18/1 6/11/1 10/16/1
f 12/20/1 6/11/1 11/18/1
f 13/21/1 11/18/1 9/19/1
f 13/22/1 12/23/1 11/24/1
f 14/25/1 12/23/1 13/22/1
f 15/26/1 13/21/1 9/19/1
f 15/26/1 14/27/1 13/21/1
f 16/28/1 14/27/1 15/26/1
f 17/29/2 18/30/2 19/31/2
f 19/31/2 18/30/2 20/32/2
f 19/33/2 20/34/2 21/35/2
f 20/32/2 18/30/2 22/36/2
f 21/35/2 20/34/2 22/37/2
f 21/38/2 22/36/2 23/39/2
f 22/36/2 18/30/2 24/40/2
f 23/39/2 22/36/2 24/40/2
f 23/41/2 24/42/2 25/43/2
f 25/43/2 24/42/2 26/44/2
f 25/45/2 26/46/2 27/47/2
f 26/44/2 24/42/2 27/48/2
f 24/40/2 18/30/2 28/49/2
f 27/48/2 24/42/2 28/50/2
f 25/45/2 27/47/2 29/51/2
f 27/47/2 28/49/2 29/51/2
f 28/49/2 18/30/2 30/52/2
f 29/51/2 28/49/2 30/52/2
f 31/53/3 32/54/3 33/55/3
f 34/56/3 35/57/3 32/58/3
f 34/59/3 32/54/3 31/53/3
f 36/60/3 35/57/3 34/56/3
f 37/61/3 38/62/3 35/63/3
f 37/64/3 35/57/3 36/60/3
f 39/65/3 38/62/3 37/61/3
f 40/66/3 38/62/3 39/65/3
f 41/67/3 31/53/3 33/55/3
f 42/68/3 36/60/3 34/56/3
f 42/69/3 31/53/3 41/67/3
f 42/68/3 34/56/3 31/70/3
f 43/71/3 37/61/3 36/72/3
f 43/73/3 36/60/3 42/68/3
f 43/71/3 39/65/3 37/61/3
f 44/74/3 39/65/3 43/71/3
f 45/75/3 40/76/3 39/77/3
f 45/78/3 39/65/3 44/74/3
f 46/79/3 38/62/3 40/66/3
f 46/80/3 40/76/3 45/75/3
f 47/81/3 42/68/3 41/82/3
f 47/81/3 43/73/3 42/68/3
f 48/83/3 43/73/3 47/81/3
f 49/84/3 44/85/3 43/86/3
f 49/87/3 43/73/3 48/83/3
f 50/88/3 41/67/3 33/55/3
f 50/89/3 47/81/3 41/82/3
f 51/90/3 48/91/3 47/92/3
f 51/93/3 47/81/3 50/89/3
f 52/94/3 44/85/3 49/84/3
f 52/95/3 45/75/3 44/96/3
f 52/94/3 49/84/3 48/97/3
f 53/98/3 46/79/3 45/78/3
f 53/99/3 45/75/3 52/95/3
f 54/100/3 48/91/3 51/90/3
f 54/100/3 51/90/3 50/88/3
f 54/101/3 53/102/3 52/94/3
f 54/101/3 52/94/3 48/97/3
f 55/103/3 53/102/3 54/101/3
f 56/104/3 53/102/3 55/103/3
f 57/105/3 53/102/3 56/104/3
f 58/106/3 50/88/3 33/55/3
f 58/106/3 54/100/3 50/88/3
f 59/107/3 54/100/3 58/106/3
f 60/108/3 54/100/3 59/107/3
f 61/109/3 55/110/3 54/111/3
f 61/112/3 54/100/3 60/108/3
f 62/113/3 56/104/3 55/103/3
f 63/114/3 57/115/3 56/116/3
f 63/117/3 56/104/3 62/113/3
f 64/118/3 60/108/3 59/107/3
f 64/119/3 59/120/3 58/121/3
f 65/122/3 60/108/3 64/118/3
f 66/123/3 55/110/3 61/109/3
f 66/123/3 61/109/3 60/124/3
f 67/125/3 62/113/3 55/103/3
f 67/126/3 55/110/3 66/123/3
f 68/127/3 63/114/3 62/128/3
f 68/129/3 62/113/3 67/125/3
f 69/130/3 57/115/3 63/114/3
f 69/130/3 63/114/3 68/127/3
f 70/131/3 53/102/3 57/105/3
f 70/132/3 57/115/3 69/130/3
f 71/133/3 46/79/3 53/98/3
f 71/134/3 53/102/3 70/131/3
f 72/135/3 58/106/3 33/55/3
f 72/136/3 65/137/3 64/119/3
f 72/136/3 64/119/3 58/121/3
f 73/138/3 65/137/3 72/136/3
f 74/139/3 60/108/3 65/122/3
f 74/140/3 65/137/3 73/138/3
f 75/141/3 60/108/3 74/139/3
f 76/142/3 66/123/3 60/124/3
f 76/143/3 60/108/3 75/141/3
f 77/144/3 68/145/3 67/146/3
f 77/147/3 66/123/3 76/142/3
f 77/144/3 67/146/3 66/148/3
f 78/149/3 73/150/3 72/135/3
f 78/149/3 72/135/3 33/55/3
f 79/151/3 75/152/3 74/140/3
f 79/153/3 73/150/3 78/149/3
f 79/151/3 74/140/3 73/138/3
f 80/154/3 76/143/3 75/141/3
f 80/155/3 75/152/3 79/151/3
f 80/154/3 77/144/3 76/143/3
f 81/156/3 69/130/3 68/127/3
f 81/157/3 77/144/3 80/154/3
f 81/157/3 68/145/3 77/144/3
f 82/158/3 70/159/3 69/160/3
f 82/161/3 69/130/3 81/156/3
f 82/158/3 71/133/3 70/159/3
f 83/162/3 38/62/3 46/79/3
f 83/162/3 71/133/3 82/158/3
f 83/162/3 46/79/3 71/133/3
f 84/163/4 85/164/4 86/165/4
f 85/166/4 87/167/4 88/168/4
f 86/165/4 85/164/4 88/169/4
f 89/170/4 84/171/4 90/172/4
f 90/172/4 84/171/4 91/173/4
f 84/163/4 86/165/4 92/174/4
f 91/173/4 84/171/4 92/175/4
f 86/176/4 88/168/4 93/177/4
f 92/174/4 86/165/4 93/178/4
f 88/168/4 87/167/4 94/179/4
f 93/177/4 88/168/4 94/179/4
f 87/180/4 95/181/4 94/182/4
f 95/183/4 96/184/4 97/185/4
f 94/182/4 95/181/4 97/186/4
f 92/175/4 93/177/4 98/187/4
f 93/177/4 94/179/4 98/187/4
f 94/179/4 97/185/4 98/187/4
f 91/173/4 92/175/4 98/187/4
f 90/188/4 91/189/4 98/190/4
f 98/187/4 97/185/4 99/191/4
f 89/170/4 90/172/4 100/192/4
f 90/188/4 98/190/4 100/193/4
f 98/190/4 99/194/4 100/193/4
f 100/193/4 99/194/4 101/195/4
f 99/191/4 97/185/4 102/196/4
f 101/195/4 99/194/4 102/197/4
f 102/196/4 97/185/4 103/198/4
f 103/198/4 97/185/4 104/199/4
f 104/199/4 97/185/4 105/200/4
f 100/192/4 101/201/4 106/202/4
f 101/195/4 102/197/4 106/203/4
f 102/197/4 103/204/4 106/203/4
f 106/203/4 103/204/4 107/205/4
f 104/206/4 105/207/4 108/208/4
f 103/198/4 104/199/4 108/209/4
f 108/208/4 105/207/4 109/210/4
f 108/209/4 109/211/4 110/212/4
f 109/210/4 105/207/4 110/213/4
f 105/200/4 97/185/4 111/214/4
f 110/213/4 105/207/4 111/215/4
f 97/185/4 96/184/4 112/216/4
f 111/214/4 97/185/4 112/216/4
f 107/205/4 103/204/4 113/217/4
f 106/202/4 107/218/4 113/219/4
f 110/212/4 111/214/4 114/220/4
f 113/217/4 103/204/4 114/221/4
f 108/209/4 110/212/4 114/220/4
f 103/198/4 108/209/4 114/220/4
f 111/215/4 112/222/4 115/223/4
f 114/220/4 111/214/4 115/224/4
f 112/216/4 96/184/4 116/225/4
f 115/223/4 112/222/4 116/226/4
f 106/202/4 113/219/4 117/227/4
f 100/192/4 106/202/4 117/227/4
f 115/224/4 116/225/4 117/227/4
f 113/219/4 114/220/4 117/227/4
f 114/220/4 115/224/4 117/227/4
f 89/170/4 100/192/4 117/227/4
f 116/225/4 96/184/4 118/228/4
f 117/227/4 116/225/4 118/228/4
f 119/229/5 120/230/5 121/231/5
f 122/232/5 120/230/5 119/229/5
f 123/233/5 119/229/5 121/231/5
f 123/234/5 122/235/5 119/236/5
f 124/237/5 120/230/5 122/232/5
f 124/238/5 122/235/5 123/234/5
f 125/239/5 123/233/5 121/231/5
f 125/239/5 124/237/5 123/233/5
f 126/240/5 120/230/5 124/237/5
f 126/240/5 124/237/5 125/239/5
f 127/241/6 128/242/6 129/243/6
f 129/243/6 128/242/6 130/244/6
