# Blender v2.79 (sub 0) OBJ File: ''
# www.blender.org
mtllib OBJ_Celular.mtl
o OBJ_Celular
v 1.288472 12.432766 13.815246
v -1.711530 -14.567233 13.815246
v 1.288468 -14.567233 13.815246
v -1.711528 12.432766 13.815246
v 1.288468 -14.567233 12.815246
v -1.711532 -16.567234 12.815247
v 1.288468 -16.567234 12.815247
v -1.711530 -14.567233 12.815246
v 1.288474 14.432766 12.815246
v -1.711528 12.432766 12.815246
v 1.288472 12.432766 12.815246
v -1.711528 14.432766 12.815246
v 1.288468 -16.567234 11.815247
v -1.711532 -17.567232 11.815247
v 1.288468 -17.567232 11.815247
v -1.711532 -16.567234 11.815247
v 1.288474 15.432767 11.815247
v -1.711528 14.432766 11.815246
v 1.288472 14.432766 11.815246
v -1.711528 15.432767 11.815247
v 1.288468 -17.567232 9.815247
v -1.711530 -18.567232 9.815247
v 1.288468 -18.567232 9.815247
v -1.711532 -17.567232 9.815247
v 1.288474 16.432766 9.815247
v -1.711528 15.432767 9.815247
v 1.288474 15.432767 9.815247
v -1.711528 16.432766 9.815247
v 1.288466 -18.567232 -9.184753
v -1.711532 -18.567232 -9.184753
v 1.288466 -17.567232 -9.184753
v -1.711532 -17.567232 -9.184753
v 1.288472 15.432767 -9.184753
v -1.711530 15.432767 -9.184753
v 1.288472 16.432766 -9.184753
v -1.711530 16.432766 -9.184753
v 1.288466 -17.567232 -11.184753
v -1.711532 -17.567232 -11.184753
v 1.288466 -16.567234 -11.184753
v -1.711532 -16.567234 -11.184753
v 1.288472 14.432766 -11.184753
v -1.711530 14.432766 -11.184753
v 1.288472 15.432767 -11.184753
v -1.711530 15.432767 -11.184753
v 1.288466 -16.567234 -12.184753
v -1.711532 -16.567234 -12.184753
v 1.288468 -14.567233 -12.184753
v -1.711532 -14.567233 -12.184753
v 1.288472 12.432766 -12.184753
v -1.711530 12.432766 -12.184753
v 1.288472 14.432766 -12.184753
v -1.711530 14.432766 -12.184753
v 1.288468 -14.567233 -13.184753
v -1.711532 -14.567233 -13.184753
v 1.288472 12.432766 -13.184753
v -1.711530 12.432766 -13.184753
v 1.288468 -14.567233 12.815246
v 1.288472 12.432766 13.815246
v 1.288468 -14.567233 13.815246
v 1.288472 12.432766 12.815246
v 1.288468 -16.567234 11.815247
v 1.288468 -16.567234 12.815247
v 1.288474 14.432766 12.815246
v 1.288472 14.432766 11.815246
v 1.288468 -13.567233 10.815246
v 1.288468 -17.567232 11.815247
v 1.288474 15.432767 11.815247
v 1.288472 11.432766 10.815246
v 1.288468 -17.567232 9.815247
v 1.288474 15.432767 9.815247
v 1.288472 14.432767 3.815248
v 1.288474 16.432766 9.815247
v 1.288472 15.432768 3.815249
v 1.288472 14.432768 2.815248
v 1.288472 15.432769 2.815249
v 1.288468 -17.567232 1.815249
v 1.288468 -18.567232 9.815247
v 1.288468 -15.567233 1.815247
v 1.288472 13.432764 1.815248
v 1.288472 15.432769 1.815249
v 1.288468 -17.567232 -1.184753
v 1.288468 -15.567233 -1.184753
v 1.288472 13.432764 -1.184753
v 1.288472 15.432769 -1.184753
v 1.288472 8.432765 -4.184753
v 1.288472 9.432765 -4.184753
v 1.288472 7.432765 -5.184753
v 1.288472 8.432765 -5.184753
v 1.288470 6.432765 -6.184753
v 1.288472 7.432765 -6.184753
v 1.288472 8.432765 -6.184753
v 1.288472 9.432765 -6.184753
v 1.288472 7.432765 -7.184753
v 1.288472 8.432765 -7.184753
v 1.288470 6.432765 -8.184753
v 1.288470 7.432765 -8.184753
v 1.288466 -18.567232 -9.184753
v 1.288466 -17.567232 -9.184753
v 1.288472 15.432767 -9.184753
v 1.288472 16.432766 -9.184753
v 1.288468 -13.567233 -10.184753
v 1.288472 11.432766 -10.184753
v 1.288466 -17.567232 -11.184753
v 1.288466 -16.567234 -11.184753
v 1.288472 14.432766 -11.184753
v 1.288472 15.432767 -11.184753
v 1.288466 -16.567234 -12.184753
v 1.288468 -14.567233 -12.184753
v 1.288472 12.432766 -12.184753
v 1.288472 14.432766 -12.184753
v 1.288468 -14.567233 -13.184753
v 1.288472 12.432766 -13.184753
v -1.711530 -14.567233 13.815246
v -1.711528 12.432766 13.815246
v -1.711530 -14.567233 12.815246
v -1.711528 12.432766 12.815246
v -1.711532 -16.567234 12.815247
v -1.711532 -16.567234 11.815247
v -1.711528 14.432766 12.815246
v -1.711528 14.432766 11.815246
v -1.711532 -17.567232 11.815247
v -1.711532 -17.567232 9.815247
v -1.711528 15.432767 11.815247
v -1.711528 15.432767 9.815247
v -1.711530 -18.567232 9.815247
v -1.711532 -18.567232 -9.184753
v -1.711528 16.432766 9.815247
v -1.711532 -17.567232 -9.184753
v -1.711530 15.432767 -9.184753
v -1.711530 16.432766 -9.184753
v -1.711532 -17.567232 -11.184753
v -1.711532 -16.567234 -11.184753
v -1.711530 14.432766 -11.184753
v -1.711530 15.432767 -11.184753
v -1.711532 -16.567234 -12.184753
v -1.711532 -14.567233 -12.184753
v -1.711530 12.432766 -12.184753
v -1.711530 14.432766 -12.184753
v -1.711532 -14.567233 -13.184753
v -1.711530 12.432766 -13.184753
v -1.711530 -18.567232 9.815247
v 1.288466 -18.567232 -9.184753
v 1.288468 -18.567232 9.815247
v -1.711532 -18.567232 -9.184753
v -1.711532 -17.567232 11.815247
v 1.288468 -17.567232 9.815247
v 1.288468 -17.567232 11.815247
v -1.711532 -17.567232 9.815247
v -1.711532 -17.567232 -9.184753
v 1.288466 -17.567232 -11.184753
v 1.288466 -17.567232 -9.184753
v -1.711532 -17.567232 -11.184753
v -1.711532 -16.567234 12.815247
v 1.288468 -16.567234 11.815247
v 1.288468 -16.567234 12.815247
v -1.711532 -16.567234 11.815247
v -1.711532 -16.567234 -11.184753
v 1.288466 -16.567234 -12.184753
v 1.288466 -16.567234 -11.184753
v -1.711532 -16.567234 -12.184753
v -1.711530 -14.567233 13.815246
v 1.288468 -14.567233 12.815246
v 1.288468 -14.567233 13.815246
v -1.711530 -14.567233 12.815246
v -1.711532 -14.567233 -12.184753
v 1.288468 -14.567233 -13.184753
v 1.288468 -14.567233 -12.184753
v -1.711532 -14.567233 -13.184753
v 1.288472 12.432766 13.815246
v 1.288472 12.432766 12.815246
v -1.711528 12.432766 13.815246
v -1.711528 12.432766 12.815246
v 1.288472 12.432766 -12.184753
v 1.288472 12.432766 -13.184753
v -1.711530 12.432766 -12.184753
v -1.711530 12.432766 -13.184753
v 1.288474 14.432766 12.815246
v 1.288472 14.432766 11.815246
v -1.711528 14.432766 12.815246
v -1.711528 14.432766 11.815246
v 1.288472 14.432766 -11.184753
v 1.288472 14.432766 -12.184753
v -1.711530 14.432766 -11.184753
v -1.711530 14.432766 -12.184753
v 1.288474 15.432767 11.815247
v 1.288474 15.432767 9.815247
v -1.711528 15.432767 11.815247
v -1.711528 15.432767 9.815247
v 1.288472 15.432767 -9.184753
v 1.288472 15.432767 -11.184753
v -1.711530 15.432767 -9.184753
v -1.711530 15.432767 -11.184753
v 1.288474 16.432766 9.815247
v 1.288472 16.432766 -9.184753
v -1.711528 16.432766 9.815247
v -1.711530 16.432766 -9.184753
vt 0.994141 0.500000
vt 0.994141 0.500000
vt 0.994141 0.500000
vt 0.994141 0.500000
vt 0.994141 0.500000
vt 0.994141 0.500000
vt 0.994141 0.500000
vt 0.994141 0.500000
vt 0.994141 0.500000
vt 0.994141 0.500000
vt 0.994141 0.500000
vt 0.994141 0.500000
vt 0.994141 0.500000
vt 0.994141 0.500000
vt 0.994141 0.500000
vt 0.994141 0.500000
vt 0.994141 0.500000
vt 0.994141 0.500000
vt 0.994141 0.500000
vt 0.994141 0.500000
vt 0.994141 0.500000
vt 0.994141 0.500000
vt 0.994141 0.500000
vt 0.994141 0.500000
vt 0.994141 0.500000
vt 0.994141 0.500000
vt 0.994141 0.500000
vt 0.994141 0.500000
vt 0.994141 0.500000
vt 0.994141 0.500000
vt 0.994141 0.500000
vt 0.994141 0.500000
vt 0.994141 0.500000
vt 0.994141 0.500000
vt 0.994141 0.500000
vt 0.994141 0.500000
vt 0.994141 0.500000
vt 0.994141 0.500000
vt 0.994141 0.500000
vt 0.994141 0.500000
vt 0.994141 0.500000
vt 0.994141 0.500000
vt 0.994141 0.500000
vt 0.994141 0.500000
vt 0.994141 0.500000
vt 0.994141 0.500000
vt 0.994141 0.500000
vt 0.994141 0.500000
vt 0.994141 0.500000
vt 0.994141 0.500000
vt 0.994141 0.500000
vt 0.994141 0.500000
vt 0.994141 0.500000
vt 0.994141 0.500000
vt 0.994141 0.500000
vt 0.994141 0.500000
vt 0.994141 0.500000
vt 0.994141 0.500000
vt 0.994141 0.500000
vt 0.994141 0.500000
vt 0.994141 0.500000
vt 0.994141 0.500000
vt 0.994141 0.500000
vt 0.994141 0.500000
vt 0.994141 0.500000
vt 0.994141 0.500000
vt 0.994141 0.500000
vt 0.994141 0.500000
vt 0.994141 0.500000
vt 0.994141 0.500000
vt 0.994141 0.500000
vt 0.994141 0.500000
vt 0.994141 0.500000
vt 0.994141 0.500000
vt 0.962891 0.500000
vt 0.962891 0.500000
vt 0.962891 0.500000
vt 0.994141 0.500000
vt 0.962891 0.500000
vt 0.994141 0.500000
vt 0.994141 0.500000
vt 0.994141 0.500000
vt 0.994141 0.500000
vt 0.994141 0.500000
vt 0.962891 0.500000
vt 0.962891 0.500000
vt 0.962891 0.500000
vt 0.994141 0.500000
vt 0.994141 0.500000
vt 0.962891 0.500000
vt 0.994141 0.500000
vt 0.962891 0.500000
vt 0.962891 0.500000
vt 0.962891 0.500000
vt 0.994141 0.500000
vt 0.962891 0.500000
vt 0.966797 0.500000
vt 0.966797 0.500000
vt 0.966797 0.500000
vt 0.966797 0.500000
vt 0.966797 0.500000
vt 0.958984 0.500000
vt 0.958984 0.500000
vt 0.958984 0.500000
vt 0.966797 0.500000
vt 0.966797 0.500000
vt 0.958984 0.500000
vt 0.958984 0.500000
vt 0.966797 0.500000
vt 0.958984 0.500000
vt 0.966797 0.500000
vt 0.958984 0.500000
vt 0.958984 0.500000
vt 0.958984 0.500000
vt 0.966797 0.500000
vt 0.966797 0.500000
vt 0.958984 0.500000
vt 0.958984 0.500000
vt 0.966797 0.500000
vt 0.966797 0.500000
vt 0.966797 0.500000
vt 0.958984 0.500000
vt 0.994141 0.500000
vt 0.994141 0.500000
vt 0.994141 0.500000
vt 0.994141 0.500000
vt 0.994141 0.500000
vt 0.966797 0.500000
vt 0.994141 0.500000
vt 0.966797 0.500000
vt 0.994141 0.500000
vt 0.994141 0.500000
vt 0.994141 0.500000
vt 0.994141 0.500000
vt 0.994141 0.500000
vt 0.994141 0.500000
vt 0.994141 0.500000
vt 0.994141 0.500000
vt 0.994141 0.500000
vt 0.994141 0.500000
vt 0.994141 0.500000
vt 0.994141 0.500000
vt 0.994141 0.500000
vt 0.994141 0.500000
vt 0.994141 0.500000
vt 0.994141 0.500000
vt 0.994141 0.500000
vt 0.994141 0.500000
vt 0.994141 0.500000
vt 0.994141 0.500000
vt 0.994141 0.500000
vt 0.994141 0.500000
vt 0.994141 0.500000
vt 0.994141 0.500000
vt 0.994141 0.500000
vt 0.994141 0.500000
vt 0.994141 0.500000
vt 0.994141 0.500000
vt 0.994141 0.500000
vt 0.994141 0.500000
vt 0.994141 0.500000
vt 0.994141 0.500000
vt 0.994141 0.500000
vt 0.994141 0.500000
vt 0.994141 0.500000
vt 0.994141 0.500000
vt 0.994141 0.500000
vt 0.994141 0.500000
vt 0.994141 0.500000
vt 0.994141 0.500000
vt 0.994141 0.500000
vt 0.994141 0.500000
vt 0.994141 0.500000
vt 0.994141 0.500000
vt 0.994141 0.500000
vt 0.994141 0.500000
vt 0.994141 0.500000
vt 0.994141 0.500000
vt 0.994141 0.500000
vt 0.994141 0.500000
vt 0.994141 0.500000
vt 0.994141 0.500000
vt 0.994141 0.500000
vt 0.994141 0.500000
vt 0.994141 0.500000
vt 0.994141 0.500000
vt 0.994141 0.500000
vt 0.994141 0.500000
vt 0.994141 0.500000
vt 0.994141 0.500000
vt 0.994141 0.500000
vt 0.994141 0.500000
vt 0.994141 0.500000
vt 0.994141 0.500000
vt 0.994141 0.500000
vt 0.994141 0.500000
vt 0.994141 0.500000
vt 0.994141 0.500000
vt 0.994141 0.500000
vt 0.994141 0.500000
vt 0.994141 0.500000
vt 0.994141 0.500000
vt 0.994141 0.500000
vt 0.994141 0.500000
vt 0.994141 0.500000
vt 0.994141 0.500000
vt 0.994141 0.500000
vt 0.994141 0.500000
vt 0.994141 0.500000
vt 0.994141 0.500000
vt 0.994141 0.500000
vt 0.994141 0.500000
vt 0.994141 0.500000
vt 0.994141 0.500000
vt 0.994141 0.500000
vt 0.994141 0.500000
vt 0.994141 0.500000
vt 0.994141 0.500000
vt 0.994141 0.500000
vt 0.994141 0.500000
vt 0.994141 0.500000
vt 0.994141 0.500000
vt 0.994141 0.500000
vt 0.994141 0.500000
vn 0.0000 0.0000 1.0000
vn 0.0000 0.0000 -1.0000
vn 1.0000 -0.0000 0.0000
vn -1.0000 0.0000 0.0000
vn 0.0000 -1.0000 0.0000
vn 0.0000 1.0000 0.0000
usemtl palette
s 1
f 1/1/1 2/2/1 3/3/1
f 4/4/1 2/2/1 1/1/1
f 5/5/1 6/6/1 7/7/1
f 8/8/1 6/6/1 5/5/1
f 9/9/1 10/10/1 11/11/1
f 12/12/1 10/10/1 9/9/1
f 13/13/1 14/14/1 15/15/1
f 16/16/1 14/14/1 13/13/1
f 17/17/1 18/18/1 19/19/1
f 20/20/1 18/18/1 17/17/1
f 21/21/1 22/22/1 23/23/1
f 24/24/1 22/22/1 21/21/1
f 25/25/1 26/26/1 27/27/1
f 28/28/1 26/26/1 25/25/1
f 29/29/2 30/30/2 31/31/2
f 31/31/2 30/30/2 32/32/2
f 33/33/2 34/34/2 35/35/2
f 35/35/2 34/34/2 36/36/2
f 37/37/2 38/38/2 39/39/2
f 39/39/2 38/38/2 40/40/2
f 41/41/2 42/42/2 43/43/2
f 43/43/2 42/42/2 44/44/2
f 45/45/2 46/46/2 47/47/2
f 47/47/2 46/46/2 48/48/2
f 49/49/2 50/50/2 51/51/2
f 51/51/2 50/50/2 52/52/2
f 53/53/2 54/54/2 55/55/2
f 55/55/2 54/54/2 56/56/2
f 57/57/3 58/58/3 59/59/3
f 60/60/3 58/58/3 57/57/3
f 61/61/3 57/57/3 62/62/3
f 61/61/3 63/63/3 60/60/3
f 61/61/3 60/60/3 57/57/3
f 64/64/3 63/63/3 61/61/3
f 65/65/3 61/61/3 66/66/3
f 65/65/3 67/67/3 64/64/3
f 65/65/3 64/64/3 61/61/3
f 68/68/3 67/67/3 65/65/3
f 69/69/3 65/65/3 66/66/3
f 70/70/3 67/67/3 68/68/3
f 71/71/3 70/70/3 68/68/3
f 71/71/3 72/72/3 70/70/3
f 73/73/3 72/72/3 71/71/3
f 74/74/3 71/71/3 68/68/3
f 74/75/3 73/76/3 71/77/3
f 75/78/3 72/72/3 73/73/3
f 75/79/3 73/76/3 74/75/3
f 76/80/3 69/69/3 77/81/3
f 76/80/3 65/65/3 69/69/3
f 78/82/3 65/65/3 76/80/3
f 79/83/3 75/78/3 74/74/3
f 79/83/3 74/74/3 68/68/3
f 80/84/3 72/72/3 75/78/3
f 80/84/3 75/78/3 79/83/3
f 81/85/3 78/86/3 76/87/3
f 81/88/3 76/80/3 77/81/3
f 82/89/3 65/65/3 78/82/3
f 82/90/3 78/86/3 81/85/3
f 83/91/3 79/83/3 68/68/3
f 83/92/3 80/93/3 79/94/3
f 84/95/3 72/72/3 80/84/3
f 84/96/3 80/93/3 83/92/3
f 85/97/3 68/98/3 65/99/3
f 86/100/3 68/98/3 85/97/3
f 87/101/3 85/97/3 65/99/3
f 88/102/3 86/103/3 85/104/3
f 88/105/3 85/97/3 87/101/3
f 89/106/3 87/101/3 65/99/3
f 90/107/3 88/102/3 87/108/3
f 90/109/3 87/101/3 89/106/3
f 91/110/3 86/103/3 88/102/3
f 91/110/3 88/102/3 90/107/3
f 92/111/3 68/98/3 86/100/3
f 92/112/3 86/103/3 91/110/3
f 93/113/3 91/110/3 90/107/3
f 93/113/3 90/107/3 89/114/3
f 94/115/3 92/111/3 91/116/3
f 94/117/3 91/110/3 93/113/3
f 95/118/3 93/113/3 89/114/3
f 95/119/3 89/106/3 65/99/3
f 96/120/3 94/115/3 93/121/3
f 96/122/3 93/113/3 95/118/3
f 97/123/3 81/88/3 77/81/3
f 97/123/3 82/89/3 81/88/3
f 98/124/3 82/89/3 97/123/3
f 99/125/3 72/72/3 84/95/3
f 99/125/3 84/95/3 83/91/3
f 100/126/3 72/72/3 99/125/3
f 101/127/3 65/65/3 82/89/3
f 101/127/3 82/89/3 98/124/3
f 101/128/3 96/120/3 95/119/3
f 101/128/3 95/119/3 65/99/3
f 102/129/3 99/125/3 83/91/3
f 102/130/3 96/120/3 101/128/3
f 102/130/3 94/115/3 96/120/3
f 102/130/3 68/98/3 92/111/3
f 102/130/3 92/111/3 94/115/3
f 102/129/3 83/91/3 68/68/3
f 103/131/3 101/127/3 98/124/3
f 103/131/3 102/129/3 101/127/3
f 104/132/3 102/129/3 103/131/3
f 105/133/3 99/125/3 102/129/3
f 105/133/3 102/129/3 104/132/3
f 106/134/3 99/125/3 105/133/3
f 107/135/3 105/133/3 104/132/3
f 108/136/3 105/133/3 107/135/3
f 109/137/3 105/133/3 108/136/3
f 110/138/3 105/133/3 109/137/3
f 111/139/3 109/137/3 108/136/3
f 112/140/3 109/137/3 111/139/3
f 113/141/4 114/142/4 115/143/4
f 115/143/4 114/142/4 116/144/4
f 117/145/4 115/143/4 118/146/4
f 116/144/4 119/147/4 118/146/4
f 115/143/4 116/144/4 118/146/4
f 118/146/4 119/147/4 120/148/4
f 121/149/4 118/146/4 122/150/4
f 120/148/4 123/151/4 122/150/4
f 118/146/4 120/148/4 122/150/4
f 122/150/4 123/151/4 124/152/4
f 125/153/4 122/150/4 126/154/4
f 124/152/4 127/155/4 126/154/4
f 122/150/4 124/152/4 126/154/4
f 126/154/4 127/155/4 128/156/4
f 128/156/4 127/155/4 129/157/4
f 129/157/4 127/155/4 130/158/4
f 128/156/4 129/157/4 131/159/4
f 131/159/4 129/157/4 132/160/4
f 132/160/4 129/157/4 133/161/4
f 133/161/4 129/157/4 134/162/4
f 132/160/4 133/161/4 135/163/4
f 135/163/4 133/161/4 136/164/4
f 136/164/4 133/161/4 137/165/4
f 137/165/4 133/161/4 138/166/4
f 136/164/4 137/165/4 139/167/4
f 139/167/4 137/165/4 140/168/4
f 141/169/5 142/170/5 143/171/5
f 144/172/5 142/170/5 141/169/5
f 145/173/5 146/174/5 147/175/5
f 148/176/5 146/174/5 145/173/5
f 149/177/5 150/178/5 151/179/5
f 152/180/5 150/178/5 149/177/5
f 153/181/5 154/182/5 155/183/5
f 156/184/5 154/182/5 153/181/5
f 157/185/5 158/186/5 159/187/5
f 160/188/5 158/186/5 157/185/5
f 161/189/5 162/190/5 163/191/5
f 164/192/5 162/190/5 161/189/5
f 165/193/5 166/194/5 167/195/5
f 168/196/5 166/194/5 165/193/5
f 169/197/6 170/198/6 171/199/6
f 171/199/6 170/198/6 172/200/6
f 173/201/6 174/202/6 175/203/6
f 175/203/6 174/202/6 176/204/6
f 177/205/6 178/206/6 179/207/6
f 179/207/6 178/206/6 180/208/6
f 181/209/6 182/210/6 183/211/6
f 183/211/6 182/210/6 184/212/6
f 185/213/6 186/214/6 187/215/6
f 187/215/6 186/214/6 188/216/6
f 189/217/6 190/218/6 191/219/6
f 191/219/6 190/218/6 192/220/6
f 193/221/6 194/222/6 195/223/6
f 195/223/6 194/222/6 196/224/6
