# Blender v2.79 (sub 0) OBJ File: ''
# www.blender.org
mtllib Ojos.mtl
o Obj_Ojos
v 1.007377 2.785619 6.938137
v 0.007376 -1.214380 6.938137
v 1.007376 -1.214380 6.938137
v 0.007377 2.785619 6.938137
v 1.007376 -1.214381 5.938137
v 0.007376 -2.214380 5.938137
v 1.007376 -2.214380 5.938137
v 0.007376 -1.214380 5.938137
v 1.007376 -0.214381 -1.061863
v 0.007376 -1.214380 -1.061863
v 1.007376 -1.214381 -1.061863
v 0.007376 -0.214380 -1.061863
v 1.007376 2.785619 -1.061863
v 0.007376 1.785619 -1.061863
v 1.007376 1.785619 -1.061863
v 0.007376 2.785619 -1.061863
v 1.007376 -1.214381 -2.061863
v 0.007376 -2.214380 -2.061863
v 1.007376 -2.214380 -2.061863
v 0.007376 -1.214380 -2.061863
v 1.007376 -2.214380 1.938138
v 0.007376 -2.214380 1.938137
v 1.007376 -1.214381 1.938138
v 0.007376 -1.214380 1.938137
v 1.007376 -1.214381 0.938137
v 0.007376 -1.214380 0.938137
v 1.007376 -0.214381 0.938137
v 0.007376 -0.214381 0.938137
v 1.007376 1.785619 0.938137
v 0.007376 1.785619 0.938137
v 1.007376 2.785619 0.938137
v 0.007376 2.785619 0.938137
v 1.007375 -2.214380 -6.061862
v 0.007375 -2.214380 -6.061862
v 1.007376 -1.214381 -6.061862
v 0.007375 -1.214380 -6.061862
v 1.007375 -1.214381 -7.061862
v 0.007375 -1.214380 -7.061862
v 1.007376 2.785619 -7.061862
v 0.007376 2.785619 -7.061862
v 1.007376 -1.214381 5.938137
v 1.007377 2.785619 6.938137
v 1.007376 -1.214380 6.938137
v 1.007376 -0.214381 5.938137
v 1.007376 0.785619 5.938137
v 1.007376 1.785619 5.938137
v 1.007376 -1.214381 4.938137
v 1.007376 -2.214380 5.938137
v 1.007376 -0.214381 4.938137
v 1.007376 0.785619 4.938137
v 1.007376 0.785619 3.938137
v 1.007376 1.785619 3.938137
v 1.007376 -1.214381 2.938137
v 1.007376 -0.214381 2.938138
v 1.007376 0.785619 2.938138
v 1.007376 -2.214380 1.938138
v 1.007376 -1.214381 1.938138
v 1.007376 -0.214381 1.938138
v 1.007376 1.785619 1.938138
v 1.007376 -1.214381 0.938137
v 1.007376 -0.214381 0.938137
v 1.007376 1.785619 0.938137
v 1.007376 2.785619 0.938137
v 1.007376 -0.214381 -1.061863
v 1.007376 1.785619 -1.061863
v 1.007376 -1.214381 -2.061863
v 1.007376 -1.214381 -1.061863
v 1.007376 2.785619 -1.061863
v 1.007376 -0.214381 -2.061863
v 1.007376 0.785619 -2.061863
v 1.007376 1.785619 -2.061863
v 1.007376 -1.214381 -3.061863
v 1.007376 -2.214380 -2.061863
v 1.007376 -0.214381 -3.061862
v 1.007376 0.785619 -3.061862
v 1.007376 0.785619 -4.061862
v 1.007376 1.785619 -4.061862
v 1.007376 -1.214381 -5.061862
v 1.007376 -0.214381 -5.061862
v 1.007376 0.785619 -5.061862
v 1.007375 -2.214380 -6.061862
v 1.007376 -1.214381 -6.061862
v 1.007376 -0.214381 -6.061862
v 1.007376 1.785619 -6.061862
v 1.007375 -1.214381 -7.061862
v 1.007376 2.785619 -7.061862
v 0.007376 -1.214380 6.938137
v 0.007377 2.785619 6.938137
v 0.007376 -1.214380 5.938137
v 0.007376 -0.214380 5.938137
v 0.007376 0.785619 5.938137
v 0.007376 1.785620 5.938137
v 0.007376 -2.214380 5.938137
v 0.007376 -1.214380 4.938137
v 0.007376 -0.214381 4.938137
v 0.007376 0.785620 4.938137
v 0.007376 0.785619 3.938137
v 0.007376 1.785619 3.938137
v 0.007376 -1.214380 2.938137
v 0.007376 -0.214380 2.938138
v 0.007376 0.785619 2.938138
v 0.007376 -2.214380 1.938137
v 0.007376 -1.214380 1.938137
v 0.007376 -0.214380 1.938138
v 0.007376 1.785619 1.938138
v 0.007376 -1.214380 0.938137
v 0.007376 -0.214381 0.938137
v 0.007376 1.785619 0.938137
v 0.007376 2.785619 0.938137
v 0.007376 -0.214380 -1.061863
v 0.007376 1.785619 -1.061863
v 0.007376 -1.214380 -1.061863
v 0.007376 -1.214380 -2.061863
v 0.007376 2.785619 -1.061863
v 0.007376 -0.214380 -2.061863
v 0.007376 0.785619 -2.061863
v 0.007376 1.785619 -2.061863
v 0.007376 -2.214380 -2.061863
v 0.007376 -1.214380 -3.061863
v 0.007376 -0.214381 -3.061862
v 0.007376 0.785619 -3.061862
v 0.007376 0.785620 -4.061862
v 0.007376 1.785620 -4.061862
v 0.007376 -1.214380 -5.061862
v 0.007376 -0.214380 -5.061862
v 0.007376 0.785619 -5.061862
v 0.007375 -2.214380 -6.061862
v 0.007375 -1.214380 -6.061862
v 0.007376 -0.214381 -6.061862
v 0.007376 1.785620 -6.061862
v 0.007375 -1.214380 -7.061862
v 0.007376 2.785619 -7.061862
v 0.007376 -2.214380 5.938137
v 1.007376 -2.214380 1.938138
v 1.007376 -2.214380 5.938137
v 0.007376 -2.214380 1.938137
v 0.007376 -2.214380 -2.061863
v 1.007375 -2.214380 -6.061862
v 1.007376 -2.214380 -2.061863
v 0.007375 -2.214380 -6.061862
v 0.007376 -1.214380 6.938137
v 1.007376 -1.214381 5.938137
v 1.007376 -1.214380 6.938137
v 0.007376 -1.214380 5.938137
v 0.007376 -1.214380 1.938137
v 1.007376 -1.214381 0.938137
v 1.007376 -1.214381 1.938138
v 0.007376 -1.214380 0.938137
v 0.007376 -1.214380 -1.061863
v 1.007376 -1.214381 -2.061863
v 1.007376 -1.214381 -1.061863
v 0.007376 -1.214380 -2.061863
v 0.007375 -1.214380 -6.061862
v 1.007375 -1.214381 -7.061862
v 1.007376 -1.214381 -6.061862
v 0.007375 -1.214380 -7.061862
v 0.007376 -0.214381 0.938137
v 1.007376 -0.214381 -1.061863
v 1.007376 -0.214381 0.938137
v 0.007376 -0.214380 -1.061863
v 1.007376 1.785619 0.938137
v 1.007376 1.785619 -1.061863
v 0.007376 1.785619 0.938137
v 0.007376 1.785619 -1.061863
v 1.007377 2.785619 6.938137
v 1.007376 2.785619 0.938137
v 0.007377 2.785619 6.938137
v 0.007376 2.785619 0.938137
v 1.007376 2.785619 -1.061863
v 1.007376 2.785619 -7.061862
v 0.007376 2.785619 -1.061863
v 0.007376 2.785619 -7.061862
vt 0.994141 0.500000
vt 0.994141 0.500000
vt 0.994141 0.500000
vt 0.994141 0.500000
vt 0.994141 0.500000
vt 0.994141 0.500000
vt 0.994141 0.500000
vt 0.994141 0.500000
vt 0.994141 0.500000
vt 0.994141 0.500000
vt 0.994141 0.500000
vt 0.994141 0.500000
vt 0.994141 0.500000
vt 0.994141 0.500000
vt 0.994141 0.500000
vt 0.994141 0.500000
vt 0.994141 0.500000
vt 0.994141 0.500000
vt 0.994141 0.500000
vt 0.994141 0.500000
vt 0.994141 0.500000
vt 0.994141 0.500000
vt 0.994141 0.500000
vt 0.994141 0.500000
vt 0.994141 0.500000
vt 0.994141 0.500000
vt 0.994141 0.500000
vt 0.994141 0.500000
vt 0.994141 0.500000
vt 0.994141 0.500000
vt 0.994141 0.500000
vt 0.994141 0.500000
vt 0.994141 0.500000
vt 0.994141 0.500000
vt 0.994141 0.500000
vt 0.994141 0.500000
vt 0.994141 0.500000
vt 0.994141 0.500000
vt 0.994141 0.500000
vt 0.994141 0.500000
vt 0.994141 0.500000
vt 0.994141 0.500000
vt 0.994141 0.500000
vt 0.994141 0.500000
vt 0.994141 0.500000
vt 0.994141 0.500000
vt 0.994141 0.500000
vt 0.994141 0.500000
vt 0.978516 0.500000
vt 0.978516 0.500000
vt 0.978516 0.500000
vt 0.994141 0.500000
vt 0.958984 0.500000
vt 0.958984 0.500000
vt 0.958984 0.500000
vt 0.978516 0.500000
vt 0.958984 0.500000
vt 0.958984 0.500000
vt 0.994141 0.500000
vt 0.958984 0.500000
vt 0.978516 0.500000
vt 0.978516 0.500000
vt 0.994141 0.500000
vt 0.958984 0.500000
vt 0.978516 0.500000
vt 0.978516 0.500000
vt 0.978516 0.500000
vt 0.978516 0.500000
vt 0.958984 0.500000
vt 0.994141 0.500000
vt 0.994141 0.500000
vt 0.994141 0.500000
vt 0.978516 0.500000
vt 0.994141 0.500000
vt 0.978516 0.500000
vt 0.994141 0.500000
vt 0.994141 0.500000
vt 0.994141 0.500000
vt 0.994141 0.500000
vt 0.994141 0.500000
vt 0.994141 0.500000
vt 0.994141 0.500000
vt 0.994141 0.500000
vt 0.994141 0.500000
vt 0.994141 0.500000
vt 0.994141 0.500000
vt 0.994141 0.500000
vt 0.994141 0.500000
vt 0.994141 0.500000
vt 0.994141 0.500000
vt 0.978516 0.500000
vt 0.978516 0.500000
vt 0.978516 0.500000
vt 0.994141 0.500000
vt 0.958984 0.500000
vt 0.958984 0.500000
vt 0.958984 0.500000
vt 0.978516 0.500000
vt 0.958984 0.500000
vt 0.958984 0.500000
vt 0.994141 0.500000
vt 0.958984 0.500000
vt 0.978516 0.500000
vt 0.978516 0.500000
vt 0.994141 0.500000
vt 0.958984 0.500000
vt 0.978516 0.500000
vt 0.978516 0.500000
vt 0.978516 0.500000
vt 0.978516 0.500000
vt 0.958984 0.500000
vt 0.994141 0.500000
vt 0.994141 0.500000
vt 0.994141 0.500000
vt 0.978516 0.500000
vt 0.994141 0.500000
vt 0.978516 0.500000
vt 0.994141 0.500000
vt 0.994141 0.500000
vt 0.994141 0.500000
vt 0.994141 0.500000
vt 0.994141 0.500000
vt 0.994141 0.500000
vt 0.994141 0.500000
vt 0.994141 0.500000
vt 0.994141 0.500000
vt 0.994141 0.500000
vt 0.994141 0.500000
vt 0.978516 0.500000
vt 0.978516 0.500000
vt 0.978516 0.500000
vt 0.994141 0.500000
vt 0.958984 0.500000
vt 0.958984 0.500000
vt 0.958984 0.500000
vt 0.978516 0.500000
vt 0.958984 0.500000
vt 0.958984 0.500000
vt 0.994141 0.500000
vt 0.958984 0.500000
vt 0.978516 0.500000
vt 0.978516 0.500000
vt 0.994141 0.500000
vt 0.958984 0.500000
vt 0.978516 0.500000
vt 0.978516 0.500000
vt 0.978516 0.500000
vt 0.978516 0.500000
vt 0.958984 0.500000
vt 0.994141 0.500000
vt 0.994141 0.500000
vt 0.994141 0.500000
vt 0.978516 0.500000
vt 0.994141 0.500000
vt 0.978516 0.500000
vt 0.994141 0.500000
vt 0.994141 0.500000
vt 0.994141 0.500000
vt 0.994141 0.500000
vt 0.994141 0.500000
vt 0.994141 0.500000
vt 0.994141 0.500000
vt 0.994141 0.500000
vt 0.994141 0.500000
vt 0.994141 0.500000
vt 0.994141 0.500000
vt 0.994141 0.500000
vt 0.994141 0.500000
vt 0.994141 0.500000
vt 0.994141 0.500000
vt 0.978516 0.500000
vt 0.978516 0.500000
vt 0.978516 0.500000
vt 0.994141 0.500000
vt 0.958984 0.500000
vt 0.958984 0.500000
vt 0.958984 0.500000
vt 0.978516 0.500000
vt 0.958984 0.500000
vt 0.958984 0.500000
vt 0.994141 0.500000
vt 0.958984 0.500000
vt 0.978516 0.500000
vt 0.978516 0.500000
vt 0.994141 0.500000
vt 0.958984 0.500000
vt 0.978516 0.500000
vt 0.978516 0.500000
vt 0.978516 0.500000
vt 0.978516 0.500000
vt 0.958984 0.500000
vt 0.994141 0.500000
vt 0.994141 0.500000
vt 0.994141 0.500000
vt 0.978516 0.500000
vt 0.994141 0.500000
vt 0.978516 0.500000
vt 0.994141 0.500000
vt 0.994141 0.500000
vt 0.994141 0.500000
vt 0.994141 0.500000
vt 0.994141 0.500000
vt 0.994141 0.500000
vt 0.994141 0.500000
vt 0.994141 0.500000
vt 0.994141 0.500000
vt 0.994141 0.500000
vt 0.994141 0.500000
vt 0.994141 0.500000
vt 0.994141 0.500000
vt 0.994141 0.500000
vt 0.994141 0.500000
vt 0.994141 0.500000
vt 0.994141 0.500000
vt 0.994141 0.500000
vt 0.994141 0.500000
vt 0.994141 0.500000
vt 0.994141 0.500000
vt 0.994141 0.500000
vt 0.994141 0.500000
vt 0.994141 0.500000
vt 0.994141 0.500000
vt 0.994141 0.500000
vt 0.994141 0.500000
vt 0.994141 0.500000
vt 0.994141 0.500000
vt 0.994141 0.500000
vt 0.994141 0.500000
vt 0.994141 0.500000
vt 0.994141 0.500000
vt 0.994141 0.500000
vt 0.994141 0.500000
vt 0.994141 0.500000
vt 0.994141 0.500000
vt 0.994141 0.500000
vt 0.994141 0.500000
vt 0.994141 0.500000
vt 0.994141 0.500000
vt 0.994141 0.500000
vt 0.994141 0.500000
vn -0.0000 0.0000 1.0000
vn 0.0000 0.0000 -1.0000
vn 1.0000 -0.0000 -0.0000
vn -1.0000 0.0000 -0.0000
vn 0.0000 -1.0000 -0.0000
vn 0.0000 1.0000 0.0000
usemtl palette
s 1
f 1/1/1 2/2/1 3/3/1
f 4/4/1 2/2/1 1/1/1
f 5/5/1 6/6/1 7/7/1
f 8/8/1 6/6/1 5/5/1
f 9/9/1 10/10/1 11/11/1
f 12/12/1 10/10/1 9/9/1
f 13/13/1 14/14/1 15/15/1
f 16/16/1 14/14/1 13/13/1
f 17/17/1 18/18/1 19/19/1
f 20/20/1 18/18/1 17/17/1
f 21/21/2 22/22/2 23/23/2
f 23/23/2 22/22/2 24/24/2
f 25/25/2 26/26/2 27/27/2
f 27/27/2 26/26/2 28/28/2
f 29/29/2 30/30/2 31/31/2
f 31/31/2 30/30/2 32/32/2
f 33/33/2 34/34/2 35/35/2
f 35/35/2 34/34/2 36/36/2
f 37/37/2 38/38/2 39/39/2
f 39/39/2 38/38/2 40/40/2
f 41/41/3 42/42/3 43/43/3
f 44/44/3 42/42/3 41/41/3
f 45/45/3 42/42/3 44/44/3
f 46/46/3 42/42/3 45/45/3
f 47/47/3 41/41/3 48/48/3
f 47/47/3 44/44/3 41/41/3
f 49/49/3 45/50/3 44/51/3
f 49/52/3 44/44/3 47/47/3
f 50/53/3 46/54/3 45/55/3
f 50/56/3 45/50/3 49/49/3
f 51/57/3 50/53/3 49/58/3
f 51/57/3 46/54/3 50/53/3
f 52/59/3 42/42/3 46/46/3
f 52/60/3 46/54/3 51/57/3
f 53/61/3 49/49/3 47/62/3
f 53/63/3 47/47/3 48/48/3
f 54/64/3 51/57/3 49/58/3
f 54/65/3 49/49/3 53/61/3
f 55/66/3 52/67/3 51/68/3
f 55/69/3 51/57/3 54/64/3
f 56/70/3 53/63/3 48/48/3
f 56/70/3 54/71/3 53/63/3
f 57/72/3 54/71/3 56/70/3
f 58/73/3 55/66/3 54/65/3
f 58/74/3 54/71/3 57/72/3
f 59/75/3 52/67/3 55/66/3
f 59/75/3 55/66/3 58/73/3
f 59/76/3 42/42/3 52/59/3
f 60/77/3 58/74/3 57/72/3
f 60/77/3 59/76/3 58/74/3
f 61/78/3 59/76/3 60/77/3
f 62/79/3 42/42/3 59/76/3
f 62/79/3 59/76/3 61/78/3
f 63/80/3 42/42/3 62/79/3
f 64/81/3 62/79/3 61/78/3
f 65/82/3 62/79/3 64/81/3
f 66/83/3 64/81/3 67/84/3
f 66/83/3 68/85/3 65/82/3
f 66/83/3 65/82/3 64/81/3
f 69/86/3 68/85/3 66/83/3
f 70/87/3 68/85/3 69/86/3
f 71/88/3 68/85/3 70/87/3
f 72/89/3 66/83/3 73/90/3
f 72/89/3 69/86/3 66/83/3
f 74/91/3 70/92/3 69/93/3
f 74/94/3 69/86/3 72/89/3
f 75/95/3 71/96/3 70/97/3
f 75/98/3 70/92/3 74/91/3
f 76/99/3 75/95/3 74/100/3
f 76/99/3 71/96/3 75/95/3
f 77/101/3 68/85/3 71/88/3
f 77/102/3 71/96/3 76/99/3
f 78/103/3 74/91/3 72/104/3
f 78/105/3 72/89/3 73/90/3
f 79/106/3 76/99/3 74/100/3
f 79/107/3 74/91/3 78/103/3
f 80/108/3 77/109/3 76/110/3
f 80/111/3 76/99/3 79/106/3
f 81/112/3 78/105/3 73/90/3
f 81/112/3 79/113/3 78/105/3
f 82/114/3 79/113/3 81/112/3
f 83/115/3 80/108/3 79/107/3
f 83/116/3 79/113/3 82/114/3
f 84/117/3 77/109/3 80/108/3
f 84/117/3 80/108/3 83/115/3
f 84/118/3 68/85/3 77/101/3
f 85/119/3 83/116/3 82/114/3
f 85/119/3 84/118/3 83/116/3
f 86/120/3 68/85/3 84/118/3
f 86/120/3 84/118/3 85/119/3
f 87/121/4 88/122/4 89/123/4
f 89/123/4 88/122/4 90/124/4
f 90/124/4 88/122/4 91/125/4
f 91/125/4 88/122/4 92/126/4
f 93/127/4 89/123/4 94/128/4
f 89/123/4 90/124/4 94/128/4
f 90/129/4 91/130/4 95/131/4
f 94/128/4 90/124/4 95/132/4
f 91/133/4 92/134/4 96/135/4
f 95/131/4 91/130/4 96/136/4
f 95/137/4 96/135/4 97/138/4
f 96/135/4 92/134/4 97/138/4
f 92/126/4 88/122/4 98/139/4
f 97/138/4 92/134/4 98/140/4
f 94/141/4 95/131/4 99/142/4
f 93/127/4 94/128/4 99/143/4
f 95/137/4 97/138/4 100/144/4
f 99/142/4 95/131/4 100/145/4
f 97/146/4 98/147/4 101/148/4
f 100/144/4 97/138/4 101/149/4
f 93/127/4 99/143/4 102/150/4
f 99/143/4 100/151/4 102/150/4
f 102/150/4 100/151/4 103/152/4
f 100/145/4 101/148/4 104/153/4
f 103/152/4 100/151/4 104/154/4
f 101/148/4 98/147/4 105/155/4
f 104/153/4 101/148/4 105/155/4
f 98/139/4 88/122/4 105/156/4
f 103/152/4 104/154/4 106/157/4
f 104/154/4 105/156/4 106/157/4
f 106/157/4 105/156/4 107/158/4
f 105/156/4 88/122/4 108/159/4
f 107/158/4 105/156/4 108/159/4
f 108/159/4 88/122/4 109/160/4
f 107/158/4 108/159/4 110/161/4
f 110/161/4 108/159/4 111/162/4
f 112/163/4 110/161/4 113/164/4
f 111/162/4 114/165/4 113/164/4
f 110/161/4 111/162/4 113/164/4
f 113/164/4 114/165/4 115/166/4
f 115/166/4 114/165/4 116/167/4
f 116/167/4 114/165/4 117/168/4
f 118/169/4 113/164/4 119/170/4
f 113/164/4 115/166/4 119/170/4
f 115/171/4 116/172/4 120/173/4
f 119/170/4 115/166/4 120/174/4
f 116/175/4 117/176/4 121/177/4
f 120/173/4 116/172/4 121/178/4
f 120/179/4 121/177/4 122/180/4
f 121/177/4 117/176/4 122/180/4
f 117/168/4 114/165/4 123/181/4
f 122/180/4 117/176/4 123/182/4
f 119/183/4 120/173/4 124/184/4
f 118/169/4 119/170/4 124/185/4
f 120/179/4 122/180/4 125/186/4
f 124/184/4 120/173/4 125/187/4
f 122/188/4 123/189/4 126/190/4
f 125/186/4 122/180/4 126/191/4
f 118/169/4 124/185/4 127/192/4
f 124/185/4 125/193/4 127/192/4
f 127/192/4 125/193/4 128/194/4
f 125/187/4 126/190/4 129/195/4
f 128/194/4 125/193/4 129/196/4
f 126/190/4 123/189/4 130/197/4
f 129/195/4 126/190/4 130/197/4
f 123/181/4 114/165/4 130/198/4
f 128/194/4 129/196/4 131/199/4
f 129/196/4 130/198/4 131/199/4
f 130/198/4 114/165/4 132/200/4
f 131/199/4 130/198/4 132/200/4
f 133/201/5 134/202/5 135/203/5
f 136/204/5 134/202/5 133/201/5
f 137/205/5 138/206/5 139/207/5
f 140/208/5 138/206/5 137/205/5
f 141/209/5 142/210/5 143/211/5
f 144/212/5 142/210/5 141/209/5
f 145/213/5 146/214/5 147/215/5
f 148/216/5 146/214/5 145/213/5
f 149/217/5 150/218/5 151/219/5
f 152/220/5 150/218/5 149/217/5
f 153/221/5 154/222/5 155/223/5
f 156/224/5 154/222/5 153/221/5
f 157/225/5 158/226/5 159/227/5
f 160/228/5 158/226/5 157/225/5
f 161/229/6 162/230/6 163/231/6
f 163/231/6 162/230/6 164/232/6
f 165/233/6 166/234/6 167/235/6
f 167/235/6 166/234/6 168/236/6
f 169/237/6 170/238/6 171/239/6
f 171/239/6 170/238/6 172/240/6
